<?xml version="1.0" encoding="UTF-8" standalone="no"?>
<!DOCTYPE svg PUBLIC "-//W3C//DTD SVG 1.1//EN" "http://www.w3.org/Graphics/SVG/1.1/DTD/svg11.dtd">
<svg xmlns="http://www.w3.org/2000/svg" version="1.1" xmlns:dc="http://purl.org/dc/elements/1.1/" xmlns:xl="http://www.w3.org/1999/xlink" viewBox="45 13 722 186" width="722" height="186">
  <defs/>
  <metadata> Produced by OmniGraffle 7.18.2\n2021-02-04 19:36:41 +0000</metadata>
  <g id="Canvas_1" fill-opacity="1" stroke-dasharray="none" fill="none" stroke="none" stroke-opacity="1">
    <title>Canvas 1</title>
    <g id="Canvas_1_Layer_1">
      <title>Layer 1</title>
      <g id="Graphic_2">
        <path d="M 94.3242 164.1943 C 103.5672 173.4343 128.1692 198.5143 128.1582 198.5403 C 128.0682 198.7043 152.5992 174.0733 162.3692 164.3083 L 128.2882 130.2293 Z" fill="#3a1888"/>
      </g>
      <g id="Graphic_3">
        <path d="M 128.2886 130.2295 L 162.3696 164.3085 C 162.4206 164.2525 162.4826 164.1885 162.5376 164.1375 L 196.5856 130.0875 L 162.5076 96.0095 Z" fill="#03a1c4"/>
      </g>
      <g id="Graphic_4">
        <path d="M 196.5854 130.0879 L 196.6724 129.9999 C 215.5064 111.1679 215.5224 80.6459 196.7294 61.7899 L 162.5074 96.0089 Z" fill="#05d0e0"/>
      </g>
      <g id="Graphic_5">
        <path d="M 94.0669 96.0093 L 60.1089 129.9673 C 60.1179 129.9783 60.1239 129.9903 60.1359 130.0003 L 94.2679 164.1373 C 94.2869 164.1553 94.3069 164.1733 94.3239 164.1943 L 128.2889 130.2293 Z" fill="#761fe8"/>
      </g>
      <g id="Graphic_6">
        <path d="M 128.2886 61.7876 L 162.5076 96.0096 L 196.7296 61.7896 C 196.7026 61.7706 196.6926 61.7506 196.6726 61.7316 L 162.5376 27.5976 C 162.5296 27.5876 162.5176 27.5786 162.5076 27.5686 Z" fill="#ffaa01"/>
      </g>
      <g id="Graphic_7">
        <path d="M 59.9644 61.9063 C 41.2974 80.7623 41.3444 111.1723 60.1084 129.9673 L 94.0674 96.0093 Z" fill="#f1175d"/>
      </g>
      <g id="Graphic_8">
        <path d="M 128.2886 61.7876 L 94.1846 27.6836 L 60.1356 61.7316 C 60.0776 61.7896 60.0246 61.8516 59.9646 61.9066 L 94.0666 96.0096 Z" fill="#fb3a1b"/>
      </g>
      <g id="Graphic_9">
        <path d="M 162.5078 27.5684 C 143.6508 8.7464 113.1118 8.7564 94.2678 27.5974 L 94.1838 27.6834 L 128.2888 61.7874 Z" fill="#fbc935"/>
      </g>
      <g id="Graphic_10">
        <path d="M 303.6646 138.623 L 303.6646 103.748 C 303.6646 95.162 299.1716 87.371 290.3166 87.371 C 281.5966 87.371 276.4506 95.162 276.4506 103.748 L 276.4506 138.623 L 260.3366 138.623 L 260.3366 73.366 L 275.2626 73.366 L 276.4506 81.294 C 279.8856 74.687 287.4156 72.312 293.6176 72.312 C 301.4176 72.312 309.2066 75.484 312.9096 84.464 C 318.7206 75.217 326.2526 72.576 334.7026 72.576 C 353.1996 72.576 362.3116 83.934 362.3116 103.485 L 362.3116 138.623 L 346.1956 138.623 L 346.1956 103.485 C 346.1956 94.903 342.6296 87.631 333.9166 87.631 C 325.1926 87.631 319.7766 95.162 319.7766 103.748 L 319.7766 138.623 Z" fill="#333359"/>
      </g>
      <g id="Graphic_11">
        <path d="M 391.2412 105.9951 C 391.2412 118.4071 399.8272 125.8091 410.5272 125.8091 C 435.8872 125.8091 435.8872 86.3121 410.5272 86.3121 C 399.8272 86.3121 391.2412 93.5791 391.2412 105.9951 M 430.3412 73.5021 L 445.7992 73.5021 L 445.7992 138.6231 L 430.6042 138.6231 L 429.8092 129.1151 C 426.1132 136.7711 415.9432 140.4681 408.6772 140.6041 C 389.3962 140.7371 375.1252 128.8491 375.1252 105.9951 C 375.1252 83.5401 390.0562 71.7851 409.0782 71.9171 C 417.7942 71.9171 426.1132 76.0101 429.8092 82.4841 Z" fill="#333359"/>
      </g>
      <g id="Graphic_12">
        <path d="M 513.9609 106.1274 C 513.9609 95.9564 507.0919 87.6314 495.4679 87.6314 C 483.8409 87.6314 476.9719 95.9564 476.9719 106.1274 C 476.9719 116.2954 484.5029 124.6244 495.4679 124.6244 C 506.4379 124.6244 513.9609 116.2954 513.9609 106.1274 M 459.4029 165.8374 L 459.4029 73.5024 L 474.4659 73.5024 L 475.5179 82.4844 C 480.5399 75.2174 489.2609 72.0474 496.6559 72.0474 C 516.7279 72.0474 530.0769 86.9774 530.0769 106.1274 C 530.0769 125.1524 518.0529 140.2104 497.1829 140.2104 C 490.3189 140.2104 480.1429 138.0904 475.5179 130.9604 L 475.5179 165.8374 Z" fill="#333359"/>
      </g>
      <g id="Graphic_13">
        <path d="M 558.875 53.687 L 558.875 73.366 L 581.065 73.366 L 581.065 78.783 L 558.875 78.783 L 558.875 118.546 C 558.875 127.393 560.728 133.603 570.896 133.603 C 574.065 133.603 577.631 132.544 580.934 130.96 L 583.18 136.24 C 579.082 138.228 574.985 139.547 570.896 139.547 C 557.025 139.547 552.535 131.355 552.535 118.546 L 552.535 78.783 L 538.661 78.783 L 538.661 73.366 L 552.535 73.366 L 552.535 54.347 Z" fill="#333359"/>
      </g>
      <g id="Graphic_14">
        <path d="M 595.999 138.623 L 602.466 138.623 L 602.466 73.102 L 595.999 73.102 Z M 604.581 52.099 C 604.581 58.969 594.146 58.969 594.146 52.099 C 594.146 45.233 604.581 45.233 604.581 52.099" fill="#333359"/>
      </g>
      <g id="Graphic_15">
        <rect x="620.958" y="46.161" width="6.475" height="92.462" fill="#333359"/>
      </g>
      <g id="Graphic_16">
        <path d="M 730.0693 73.3662 L 730.3333 84.9952 C 734.4233 76.1382 743.6763 72.7082 751.9983 72.7082 C 756.8893 72.5752 761.6353 73.8982 766.0003 76.5402 L 763.0903 81.8222 C 759.6623 79.7082 755.8243 78.7832 751.9983 78.7832 C 739.8403 78.9192 730.4643 88.6912 730.4643 100.5812 L 730.4643 138.6232 L 723.9913 138.6232 L 723.9913 73.3662 Z" fill="#333359"/>
      </g>
      <g id="Graphic_17">
        <path d="M 647.3877 106.5566 C 647.3877 91.0146 659.7207 78.4156 674.9327 78.4156 C 686.8257 78.4156 696.9587 86.1176 700.8147 96.9056 L 647.7317 110.9946 C 647.5077 109.5486 647.3877 108.0676 647.3877 106.5566 M 674.9327 134.6966 C 663.4317 134.6966 653.5817 127.4926 649.4567 117.2616 L 649.4217 117.2626 L 649.4537 117.2536 C 649.4517 117.2486 649.4497 117.2436 649.4477 117.2376 L 702.2777 103.2146 L 702.2837 103.2746 L 707.9057 101.7866 C 705.6357 85.2566 691.7407 72.5356 674.9337 72.5356 C 656.5407 72.5356 641.6327 87.7666 641.6327 106.5556 C 641.6327 125.3446 656.5407 140.5766 674.9337 140.5766 C 688.6897 140.5766 700.4967 132.0526 705.5747 119.8946 L 700.2767 117.5916 C 696.0757 127.6466 686.3107 134.6966 674.9327 134.6966" fill="#333359"/>
      </g>
    </g>
  </g>
</svg>
