<?xml version="1.0" encoding="UTF-8" standalone="no"?>
<!DOCTYPE svg PUBLIC "-//W3C//DTD SVG 1.1//EN" "http://www.w3.org/Graphics/SVG/1.1/DTD/svg11.dtd">
<svg xmlns="http://www.w3.org/2000/svg" version="1.1" xmlns:dc="http://purl.org/dc/elements/1.1/" xmlns:xl="http://www.w3.org/1999/xlink" viewBox="45 13 722 186" width="722" height="186">
  <defs/>
  <metadata> Produced by OmniGraffle 7.18.2\n2021-02-04 19:33:58 +0000</metadata>
  <g id="Canvas_1" fill-opacity="1" stroke-dasharray="none" fill="none" stroke="none" stroke-opacity="1">
    <title>Canvas 1</title>
    <g id="Canvas_1_Layer_1">
      <title>Layer 1</title>
      <g id="Graphic_2">
        <path d="M 94.3242 164.1943 C 103.5672 173.4343 128.1692 198.5143 128.1582 198.5403 C 128.0682 198.7043 152.5992 174.0733 162.3692 164.3083 L 128.2882 130.2293 Z" fill="#3a1888"/>
      </g>
      <g id="Graphic_3">
        <path d="M 128.2886 130.2295 L 162.3696 164.3085 C 162.4206 164.2525 162.4826 164.1885 162.5376 164.1375 L 196.5856 130.0875 L 162.5076 96.0095 Z" fill="#03a1c4"/>
      </g>
      <g id="Graphic_4">
        <path d="M 196.5854 130.0879 L 196.6724 129.9999 C 215.5064 111.1679 215.5224 80.6459 196.7294 61.7899 L 162.5074 96.0089 Z" fill="#05d0e0"/>
      </g>
      <g id="Graphic_5">
        <path d="M 94.0669 96.0093 L 60.1089 129.9673 C 60.1179 129.9783 60.1239 129.9903 60.1359 130.0003 L 94.2679 164.1373 C 94.2869 164.1553 94.3069 164.1733 94.3239 164.1943 L 128.2889 130.2293 Z" fill="#761fe8"/>
      </g>
      <g id="Graphic_6">
        <path d="M 128.2886 61.7876 L 162.5076 96.0096 L 196.7296 61.7896 C 196.7026 61.7706 196.6926 61.7506 196.6726 61.7316 L 162.5376 27.5976 C 162.5296 27.5876 162.5176 27.5786 162.5076 27.5686 Z" fill="#ffaa01"/>
      </g>
      <g id="Graphic_7">
        <path d="M 59.9644 61.9063 C 41.2974 80.7623 41.3444 111.1723 60.1084 129.9673 L 94.0674 96.0093 Z" fill="#f1175d"/>
      </g>
      <g id="Graphic_8">
        <path d="M 128.2886 61.7876 L 94.1846 27.6836 L 60.1356 61.7316 C 60.0776 61.7896 60.0246 61.8516 59.9646 61.9066 L 94.0666 96.0096 Z" fill="#fb3a1b"/>
      </g>
      <g id="Graphic_9">
        <path d="M 162.5078 27.5684 C 143.6508 8.7464 113.1118 8.7564 94.2678 27.5974 L 94.1838 27.6834 L 128.2888 61.7874 Z" fill="#fbc935"/>
      </g>
      <g id="Graphic_10">
        <path d="M 303.7832 138.623 L 303.7832 103.748 C 303.7832 95.162 299.2902 87.371 290.4352 87.371 C 281.7152 87.371 276.5692 95.162 276.5692 103.748 L 276.5692 138.623 L 260.4552 138.623 L 260.4552 73.366 L 275.3812 73.366 L 276.5692 81.294 C 280.0042 74.687 287.5342 72.312 293.7362 72.312 C 301.5362 72.312 309.3262 75.484 313.0282 84.464 C 318.8392 75.217 326.3712 72.576 334.8212 72.576 C 353.3182 72.576 362.4302 83.934 362.4302 103.485 L 362.4302 138.623 L 346.3142 138.623 L 346.3142 103.485 C 346.3142 94.903 342.7482 87.631 334.0352 87.631 C 325.3112 87.631 319.8952 95.162 319.8952 103.748 L 319.8952 138.623 Z" fill="white"/>
      </g>
      <g id="Graphic_11">
        <path d="M 391.3599 105.9951 C 391.3599 118.4071 399.9459 125.8091 410.6469 125.8091 C 436.0069 125.8091 436.0069 86.3121 410.6469 86.3121 C 399.9459 86.3121 391.3599 93.5791 391.3599 105.9951 M 430.4599 73.5021 L 445.9179 73.5021 L 445.9179 138.6231 L 430.7229 138.6231 L 429.9279 129.1151 C 426.2329 136.7711 416.0629 140.4681 408.7949 140.6041 C 389.5149 140.7371 375.2439 128.8491 375.2439 105.9951 C 375.2439 83.5401 390.1749 71.7851 409.1959 71.9171 C 417.9129 71.9171 426.2329 76.0101 429.9279 82.4841 Z" fill="white"/>
      </g>
      <g id="Graphic_12">
        <path d="M 514.0801 106.1274 C 514.0801 95.9564 507.2111 87.6314 495.5871 87.6314 C 483.9601 87.6314 477.0901 95.9564 477.0901 106.1274 C 477.0901 116.2954 484.6221 124.6244 495.5871 124.6244 C 506.5561 124.6244 514.0801 116.2954 514.0801 106.1274 M 459.5221 165.8374 L 459.5221 73.5024 L 474.5841 73.5024 L 475.6371 82.4844 C 480.6591 75.2174 489.3801 72.0474 496.7751 72.0474 C 516.8471 72.0474 530.1961 86.9774 530.1961 106.1274 C 530.1961 125.1524 518.1721 140.2104 497.3021 140.2104 C 490.4371 140.2104 480.2621 138.0904 475.6371 130.9604 L 475.6371 165.8374 Z" fill="white"/>
      </g>
      <g id="Graphic_13">
        <path d="M 558.9932 53.687 L 558.9932 73.366 L 581.1842 73.366 L 581.1842 78.783 L 558.9932 78.783 L 558.9932 118.546 C 558.9932 127.393 560.8462 133.603 571.0142 133.603 C 574.1842 133.603 577.7502 132.544 581.0522 130.96 L 583.2992 136.24 C 579.2012 138.228 575.1032 139.547 571.0142 139.547 C 557.1442 139.547 552.6532 131.355 552.6532 118.546 L 552.6532 78.783 L 538.7802 78.783 L 538.7802 73.366 L 552.6532 73.366 L 552.6532 54.347 Z" fill="white"/>
      </g>
      <g id="Graphic_14">
        <path d="M 596.118 138.623 L 602.584 138.623 L 602.584 73.102 L 596.118 73.102 Z M 604.7 52.099 C 604.7 58.969 594.265 58.969 594.265 52.099 C 594.265 45.233 604.7 45.233 604.7 52.099" fill="white"/>
      </g>
      <g id="Graphic_15">
        <rect x="621.077" y="46.161" width="6.474" height="92.462" fill="white"/>
      </g>
      <g id="Graphic_16">
        <path d="M 730.1885 73.3662 L 730.4515 84.9952 C 734.5425 76.1382 743.7945 72.7082 752.1165 72.7082 C 757.0085 72.5752 761.7545 73.8982 766.1195 76.5402 L 763.2095 81.8222 C 759.7815 79.7082 755.9425 78.7832 752.1165 78.7832 C 739.9595 78.9192 730.5825 88.6912 730.5825 100.5812 L 730.5825 138.6232 L 724.1105 138.6232 L 724.1105 73.3662 Z" fill="white"/>
      </g>
      <g id="Graphic_17">
        <path d="M 647.5059 106.5566 C 647.5059 91.0146 659.8399 78.4156 675.0509 78.4156 C 686.9449 78.4156 697.0779 86.1176 700.9339 96.9056 L 647.8509 110.9946 C 647.6259 109.5486 647.5059 108.0676 647.5059 106.5566 M 675.0509 134.6966 C 663.5509 134.6966 653.6999 127.4926 649.5759 117.2616 L 649.5399 117.2626 L 649.5729 117.2536 C 649.5709 117.2486 649.5689 117.2436 649.5669 117.2376 L 702.3959 103.2146 C 702.3989 103.2346 702.3999 103.2546 702.4019 103.2746 L 708.0249 101.7866 C 705.7539 85.2566 691.8589 72.5356 675.0519 72.5356 C 656.6599 72.5356 641.7519 87.7666 641.7519 106.5556 C 641.7519 125.3446 656.6599 140.5766 675.0519 140.5766 C 688.8089 140.5766 700.6149 132.0526 705.6939 119.8946 L 700.3959 117.5916 C 696.1939 127.6466 686.4299 134.6966 675.0509 134.6966" fill="white"/>
      </g>
    </g>
  </g>
</svg>
